# xmcd
#
# Track frame offsets: 
#        150
#        22649
#        35756
#        50663
#        70966
#        86065
#        105899
#        123451
#        135952
#        158722
#        176997
#        189853
#        207845
#        222041
#        244900
#
# Disc length: 3528 seconds
#
# Revision: 0
# Processed by: cddbd v1.5.2PL0 Copyright (c) Steve Scherf et al.
# Submitted via: ExactAudioCopyFreeDBPlugin 1.0
#
DISCID=c70dc60f
DTITLE=John "Blues" Boyd - Born To Sing The Blues
DYEAR=2016
DGENRE=Blues
TTITLE0=Born To Sing The Blues
TTITLE1=Easy On The Eyes
TTITLE2=The Little Hellcat
TTITLE3=Screamin' In The Night
TTITLE4=The Moment Your Eyes Met Mine
TTITLE5=Marvin Gardens
TTITLE6=Please Hurry Home
TTITLE7=You Will Never See Me Again
TTITLE8=Body, Mind And Soul
TTITLE9=So Very Weak Right Now
TTITLE10=The Poor House Bistro
TTITLE11=So Confused
TTITLE12=The Goodbye Man
TTITLE13=For As Long As The World Will Last
TTITLE14=Blues For Norway
EXTD=
EXTT0=
EXTT1=
EXTT2=
EXTT3=
EXTT4=
EXTT5=
EXTT6=
EXTT7=
EXTT8=
EXTT9=
EXTT10=
EXTT11=
EXTT12=
EXTT13=
EXTT14=
PLAYORDER=
